
<svg id="visual" viewBox="0 0 900 600" width="900" height="600" xmlns="http://www.w3.org/2000/svg" xmlns:xlink="http://www.w3.org/1999/xlink" version="1.1"><rect x="0" y="0" width="900" height="600" fill="#001220"></rect><defs><linearGradient id="grad1_0" x1="33.3%" y1="100%" x2="100%" y2="0%"><stop offset="20%" stop-color="#001220" stop-opacity="1"></stop><stop offset="80%" stop-color="#001220" stop-opacity="1"></stop></linearGradient></defs><defs><linearGradient id="grad2_0" x1="0%" y1="100%" x2="66.7%" y2="0%"><stop offset="20%" stop-color="#001220" stop-opacity="1"></stop><stop offset="80%" stop-color="#001220" stop-opacity="1"></stop></linearGradient></defs><g transform="translate(900, 600)"><path d="M-432.7 0C-374.2 -29 -315.7 -58.1 -299.6 -97.3C-283.5 -136.6 -309.9 -186.2 -301.8 -219.2C-293.7 -252.3 -251.1 -268.9 -219.8 -302.6C-188.5 -336.2 -168.5 -387 -133.7 -411.5C-98.9 -436 -49.5 -434.3 0 -432.7L0 0Z" fill="#FBAE3C"></path></g><g transform="translate(0, 0)"><path d="M432.7 0C362.2 24.1 291.8 48.2 286.3 93C280.8 137.8 340.3 203.3 344.6 250.4C349 297.5 298.3 326.1 254.3 350C210.4 373.9 173.2 393.1 132 406.1C90.7 419.1 45.3 425.9 0 432.7L0 0Z" fill="#FBAE3C"></path></g></svg>